<svg width="20" height="20" viewBox="0 0 16 16" fill="none"
                                xmlns="http://www.w3.org/2000/svg" class="nav-active-icon">
                                <path
                                    d="M14.3164 5.44096L8.74528 1.22785C8.54234 1.07978 8.29762 1 8.04641 1C7.7952 1 7.55048 1.07978 7.34753 1.22785L1.67043 5.44759C1.52394 5.55517 1.40497 5.69587 1.32323 5.8582C1.24149 6.02053 1.19929 6.19988 1.20009 6.38163V13.8208C1.19739 14.0567 1.26672 14.2878 1.39882 14.4833C1.4401 14.5465 1.48906 14.6043 1.54456 14.6555C1.65133 14.7651 1.77909 14.8521 1.92021 14.9113C2.06134 14.9705 2.21295 15.0007 2.36598 15H5.48608C5.62227 15.001 5.75726 14.9743 5.88287 14.9217C6.00847 14.869 6.12208 14.7914 6.21683 14.6935C6.31158 14.5957 6.38549 14.4797 6.4341 14.3524C6.4827 14.2252 6.50499 14.0894 6.49961 13.9533L6.45986 10.396C6.46161 10.1986 6.54125 10.0099 6.68144 9.87098C6.82163 9.73203 7.01103 9.65407 7.20842 9.65408H8.74528C8.94205 9.65408 9.13077 9.73225 9.26991 9.87139C9.40905 10.0105 9.48721 10.1992 9.48721 10.396V13.9533C9.48721 14.2204 9.5933 14.4765 9.78213 14.6653C9.97096 14.8541 10.2271 14.9602 10.4941 14.9602H13.654C13.9632 14.9602 14.2597 14.8374 14.4784 14.6187C14.697 14.4001 14.8199 14.1035 14.8199 13.7943V6.36838C14.8153 6.18499 14.7673 6.00529 14.6798 5.84407C14.5922 5.68284 14.4677 5.54469 14.3164 5.44096Z"
                                    fill="white"></path>
                            </svg>